<?xml version="1.0" encoding="utf-8"?>
<!-- Generator: Adobe Illustrator 24.0.0, SVG Export Plug-In . SVG Version: 6.00 Build 0)  -->
<svg version="1.1" id="Layer_1" xmlns="http://www.w3.org/2000/svg" xmlns:xlink="http://www.w3.org/1999/xlink" x="0px" y="0px"
	 viewBox="0 0 410 404" style="enable-background:new 0 0 410 404;" xml:space="preserve">
<style type="text/css">
	.st0{display:none;fill:url(#SVGID_1_);}
	.st1{display:none;fill:url(#SVGID_2_);}
	.st2{fill:url(#SVGID_3_);}
</style>
<linearGradient id="SVGID_1_" gradientUnits="userSpaceOnUse" x1="107.0513" y1="447.4075" x2="336.0511" y2="136.4074" gradientTransform="matrix(1 0 0 -1 0 406)">
	<stop  offset="0" style="stop-color:#41D1FF"/>
	<stop  offset="1" style="stop-color:#BD34FE"/>
</linearGradient>
<path class="st0" d="M399.6,59.5l-184,329c-3.8,6.8-13.6,6.8-17.4,0.1L10.6,59.6C6.4,52.2,12.7,43.3,21,44.8l184.2,27.9
	c1.2,0.2,2.4,0.2,3.6,0l180.3-27.9C397.4,43.3,403.8,52.1,399.6,59.5z"/>
<linearGradient id="SVGID_2_" gradientUnits="userSpaceOnUse" x1="215.0368" y1="400.1536" x2="256.4618" y2="115.9827" gradientTransform="matrix(1 0 0 -1 0 406)">
	<stop  offset="0" style="stop-color:#FFEA83"/>
	<stop  offset="8.333330e-02" style="stop-color:#FFDD35"/>
	<stop  offset="1" style="stop-color:#FFA800"/>
</linearGradient>
<path class="st1" d="M293,1.6L156.8,28.3c-2.2,0.4-3.9,2.3-4,4.6l-8.4,141.5c-0.2,3.3,2.9,5.9,6.1,5.2l37.9-8.7
	c3.5-0.8,6.8,2.3,6,5.9l-11.3,55.2c-0.8,3.7,2.7,6.9,6.4,5.8l23.4-7.1c3.6-1.1,7.1,2.1,6.3,5.8l-17.9,86.6c-1.1,5.4,6.1,8.4,9.1,3.7
	l2-3.1l111-221.4c1.9-3.7-1.3-7.9-5.4-7.1l-39,7.5c-3.7,0.7-6.8-2.7-5.8-6.3l25.5-88.3C299.8,4.3,296.6,0.9,293,1.6z"/>
<linearGradient id="SVGID_3_" gradientUnits="userSpaceOnUse" x1="84.6887" y1="38.6076" x2="302.4462" y2="334.3397">
	<stop  offset="0" style="stop-color:#41D1FF"/>
	<stop  offset="1" style="stop-color:#6D42FE"/>
</linearGradient>
<circle class="st2" cx="205" cy="202" r="188.4"/>
</svg>
